#define tmp_width 75
#define tmp_height 31
static char tmp_bits[] = {
  0x00, 0x00, 0x00, 0x00, 0x00, 0x00, 0x00, 0x00, 0x00, 0x00, 0x00, 0x00, 
  0x00, 0x00, 0x00, 0x00, 0x00, 0x00, 0x00, 0x00, 0x00, 0x00, 0x00, 0x00, 
  0x00, 0x00, 0x00, 0x00, 0x00, 0x00, 0x00, 0x00, 0x00, 0x00, 0x00, 0x00, 
  0x00, 0x00, 0x00, 0x00, 0x00, 0x00, 0x00, 0x00, 0x00, 0x00, 0x00, 0x00, 
  0x00, 0x00, 0x00, 0x00, 0x00, 0x00, 0x00, 0x00, 0x00, 0x00, 0x00, 0x00, 
  0x00, 0x00, 0x00, 0x00, 0xC0, 0x00, 0x00, 0x00, 0x7C, 0x00, 0x00, 0x00, 
  0x00, 0x00, 0xC0, 0x00, 0x00, 0x00, 0xE4, 0x00, 0x00, 0x00, 0x00, 0x00, 
  0xC0, 0x00, 0x00, 0x00, 0x80, 0x00, 0x00, 0x00, 0x00, 0x00, 0x60, 0x00, 
  0x00, 0x00, 0xC0, 0x00, 0x0C, 0x38, 0xE0, 0x39, 0x60, 0x9C, 0x07, 0x0F, 
  0x78, 0x00, 0x0C, 0x38, 0xF8, 0x3F, 0x60, 0xFC, 0xCF, 0x1F, 0xC0, 0x00, 
  0x0C, 0x38, 0x18, 0x3C, 0x30, 0x3C, 0x7C, 0x38, 0x80, 0x01, 0x0C, 0x38, 
  0x1C, 0x38, 0x30, 0x1C, 0x38, 0x30, 0x80, 0x01, 0x0C, 0x38, 0x0C, 0x38, 
  0x30, 0x1C, 0x38, 0x30, 0xE6, 0x00, 0x0C, 0x38, 0x0E, 0x38, 0x18, 0x1C, 
  0x18, 0x30, 0x7C, 0x00, 0x0C, 0x38, 0x0E, 0x38, 0x18, 0x1C, 0x18, 0x30, 
  0x00, 0x00, 0x0C, 0x38, 0x0E, 0x38, 0x18, 0x1C, 0x18, 0x30, 0x00, 0x00, 
  0x0C, 0x38, 0x0E, 0x38, 0x1C, 0x1C, 0x18, 0x30, 0x00, 0x00, 0x1C, 0x38, 
  0x0C, 0x38, 0x0C, 0x1C, 0x18, 0x30, 0x00, 0x00, 0x1C, 0x38, 0x1C, 0x38, 
  0x0C, 0x1C, 0x18, 0x30, 0x00, 0x00, 0x3C, 0x3C, 0x18, 0x3C, 0x0C, 0x1C, 
  0x18, 0x30, 0x00, 0x00, 0xFC, 0x7F, 0xF8, 0x3F, 0x06, 0x1C, 0x18, 0x30, 
  0x00, 0x00, 0xCC, 0x73, 0xE0, 0x39, 0x06, 0x1C, 0x18, 0x30, 0x00, 0x00, 
  0x0C, 0x00, 0x00, 0x18, 0x06, 0x00, 0x00, 0x00, 0x00, 0x00, 0x0C, 0x00, 
  0x00, 0x18, 0x03, 0x00, 0x00, 0x00, 0x00, 0x00, 0x0C, 0x00, 0x08, 0x1C, 
  0x02, 0x00, 0x00, 0x00, 0x00, 0x00, 0x0C, 0x00, 0xF8, 0x0F, 0x00, 0x00, 
  0x00, 0x00, 0x00, 0x00, 0x0C, 0x00, 0xF0, 0x03, 0x00, 0x00, 0x00, 0x00, 
  0x00, 0x00, 0x00, 0x00, 0x00, 0x00, 0x00, 0x00, 0x00, 0x00, 0x00, 0x00, 
  0x00, 0x00, 0x00, 0x00, 0x00, 0x00, 0x00, 0x00, 0x00, 0x00, };
