#define tmp2_width 55
#define tmp2_height 31
static unsigned char tmp2_bits[] = {
   0x00, 0x00, 0x00, 0x00, 0x00, 0x00, 0x00, 0x00, 0x00, 0x00, 0x00, 0x00,
   0x00, 0x00, 0x00, 0x00, 0x00, 0x00, 0x00, 0x00, 0x00, 0x00, 0x00, 0x00,
   0x00, 0x00, 0x00, 0x00, 0x00, 0x00, 0x00, 0x00, 0x00, 0x00, 0x00, 0x00,
   0x00, 0x00, 0x00, 0x00, 0x00, 0x00, 0x00, 0x00, 0x00, 0x00, 0x00, 0x00,
   0x00, 0x00, 0x00, 0x00, 0x00, 0x00, 0x00, 0x00, 0x00, 0x00, 0x00, 0x00,
   0x00, 0x00, 0x0f, 0x00, 0x00, 0x00, 0x18, 0x00, 0x00, 0x18, 0x00, 0x00,
   0x00, 0x18, 0x00, 0x00, 0x10, 0x00, 0x00, 0x00, 0x08, 0x00, 0x00, 0x0e,
   0x08, 0x86, 0x37, 0x8c, 0x1c, 0x07, 0x18, 0x08, 0xc6, 0x3d, 0x8c, 0xbb,
   0x0d, 0x10, 0x08, 0x66, 0x38, 0x84, 0x61, 0x18, 0x18, 0x08, 0x66, 0x30,
   0x84, 0x60, 0x18, 0x0f, 0x08, 0x66, 0x30, 0x86, 0x60, 0x18, 0x00, 0x08,
   0x66, 0x30, 0x82, 0x60, 0x18, 0x00, 0x08, 0x66, 0x30, 0x82, 0x60, 0x18,
   0x00, 0x08, 0x66, 0x30, 0x83, 0x60, 0x18, 0x00, 0xb8, 0xcf, 0x3d, 0x81,
   0x60, 0x18, 0x00, 0xe8, 0x8c, 0x37, 0x81, 0x60, 0x18, 0x00, 0x08, 0x00,
   0xb0, 0x01, 0x00, 0x00, 0x00, 0x08, 0x00, 0x10, 0x00, 0x00, 0x00, 0x00,
   0x08, 0xc0, 0x1c, 0x00, 0x00, 0x00, 0x00, 0x08, 0x80, 0x0f, 0x00, 0x00,
   0x00, 0x00, 0x00, 0x00, 0x00, 0x00, 0x00, 0x00, 0x00, 0x00, 0x00, 0x00,
   0x00, 0x00, 0x00, 0x00, 0x00, 0x00, 0x00, 0x00, 0x00, 0x00, 0x00, 0x00,
   0x00, 0x00, 0x00, 0x00, 0x00, 0x00, 0x00, 0x00, 0x00, 0x00, 0x00, 0x00,
   0x00 };
